<?xml version="1.0" standalone="no"?>
<!DOCTYPE svg PUBLIC "-//W3C//DTD SVG 20010904//EN"
 "http://www.w3.org/TR/2001/REC-SVG-20010904/DTD/svg10.dtd">
<svg version="1.0" xmlns="http://www.w3.org/2000/svg"
 width="700.000000pt" height="700.000000pt" viewBox="0 0 700.000000 700.000000"
 preserveAspectRatio="xMidYMid meet">
<metadata>
Created by potrace 1.11, written by Peter Selinger 2001-2013
</metadata>
<g transform="translate(0.000000,700.000000) scale(0.100000,-0.100000)"
fill="#000000" stroke="none">
<path d="M3847 5724 c-1 -1 -36 -5 -77 -8 -129 -10 -215 -18 -216 -20 0 0 -26
-55 -57 -121 -30 -66 -79 -169 -107 -230 -29 -60 -78 -166 -110 -235 -32 -69
-81 -174 -110 -235 -29 -60 -63 -133 -75 -162 l-24 -52 52 4 c54 5 136 13 197
20 19 2 85 7 145 11 61 4 130 8 155 10 79 5 403 4 465 -1 33 -3 85 -10 115
-15 30 -5 73 -12 95 -15 22 -4 82 -17 133 -31 490 -131 793 -397 878 -769 18
-76 22 -219 9 -325 -5 -41 -9 -87 -9 -102 -1 -14 -4 -24 -7 -23 -3 2 -11 -19
-18 -48 -28 -112 -119 -295 -202 -404 -290 -385 -777 -684 -1371 -843 -131
-34 -280 -67 -347 -76 -25 -3 -57 -7 -71 -10 -114 -19 -473 -26 -615 -12 -409
40 -659 212 -691 477 -10 81 -10 125 -3 161 4 19 10 49 12 65 40 252 347 1163
613 1817 100 248 106 262 104 266 0 1 6 15 14 30 8 15 60 131 114 257 55 127
113 259 130 295 80 173 112 243 112 247 0 7 -166 -18 -340 -52 -41 -8 -89 -17
-106 -20 -17 -2 -66 -12 -110 -20 -43 -9 -92 -19 -109 -22 -16 -3 -97 -21
-180 -40 -82 -19 -161 -36 -175 -39 -14 -3 -38 -9 -55 -14 -16 -4 -83 -20
-147 -35 -64 -15 -124 -32 -132 -39 -8 -6 -31 -54 -50 -106 -19 -52 -64 -174
-101 -270 -36 -96 -114 -301 -172 -455 -158 -421 -164 -438 -179 -472 -8 -17
-14 -34 -14 -37 0 -3 -15 -45 -34 -94 -19 -48 -94 -244 -166 -437 -73 -192
-147 -388 -165 -435 -18 -47 -51 -134 -73 -195 -23 -60 -74 -198 -115 -305
-299 -789 -289 -761 -270 -776 241 -188 530 -330 926 -453 117 -37 409 -104
542 -126 11 -1 49 -8 85 -13 94 -16 181 -26 305 -37 39 -3 90 -8 115 -10 168
-17 638 -24 775 -11 39 3 99 9 135 12 36 2 76 6 90 9 14 2 52 7 85 10 150 15
406 66 650 130 634 165 1240 465 1705 844 114 93 316 290 395 386 28 33 58 69
68 80 10 11 59 80 108 154 172 258 288 541 333 816 27 164 27 446 1 610 -11
67 -14 82 -24 130 -90 403 -328 739 -691 973 -76 49 -308 172 -325 172 -4 0
-21 7 -38 15 -168 77 -522 168 -802 206 -44 5 -90 12 -103 14 -12 2 -64 7
-115 10 -50 4 -108 9 -127 12 -37 4 -628 11 -633 7z"/>
</g>
</svg>
