<?xml version="1.0" encoding="UTF-8" standalone="no"?>
<svg width="37px" height="37px" viewBox="0 0 37 37" version="1.1" xmlns="http://www.w3.org/2000/svg" xmlns:xlink="http://www.w3.org/1999/xlink">
    <title>loanDepot Icon</title>
    <desc>Brand Icon for loanDepot</desc>
    <defs></defs>
    <g id="Page-1" stroke="none" stroke-width="1" fill="none" fill-rule="evenodd">
        <g id="color-logo-copy-2">
            <g id="Group-22" transform="translate(-55, 0)">
                <path d="M56.9419291,27.5268768 L64.0806134,8.6194461 C64.0806134,8.6194461 67.5941846,7.6770221 71.3076017,7.11974218 C67.6507301,14.8658544 65.4431292,22.0578308 65.4431292,23.1676745 C65.4431292,24.2775183 65.7591647,26.321926 70.4663896,26.321926 C76.0535565,26.321926 83.1434412,22.8485552 83.1434412,17.5406408 C83.1434412,24.6327941 75.6771024,29.1193297 67.4524334,29.1193297 C61.3199503,29.1193297 56.9419291,27.5268768 56.9419291,27.5268768" id="Fill-16" fill="#000000"></path>
                <path d="M83.1436735,17.5405622 C83.1436735,24.6335015 75.6773348,29.1200371 67.4526657,29.1200371 C61.3194081,29.1200371 57.010326,27.5267982 57.010326,27.5267982 C57.010326,27.5267982 60.7012798,31.0496876 70.1165042,31.0496876 C79.5301794,31.0496876 90.5596635,25.1153246 90.5596635,16.5266114 C90.5596635,4.70190192 73.7919661,6.88307507 73.7919661,6.88307507 L71.2257268,12.3694133 C71.2257268,12.3694133 73.634723,12.0888083 75.6300844,12.0888083 C78.4356741,12.0888083 83.1436735,13.3440637 83.1436735,17.5405622" id="Fill-18" fill="#000000"></path>
            </g>
        </g>
    </g>
</svg>