<?xml version="1.0" encoding="UTF-8" standalone="no"?>
<svg width="179px" height="37px" viewBox="0 0 179 37" version="1.1" xmlns="http://www.w3.org/2000/svg" xmlns:xlink="http://www.w3.org/1999/xlink">
    <title>loanDepot Logo</title>
    <desc>Full Name Logo for loanDepot</desc>
    <defs></defs>
    <g id="Page-1" stroke="none" stroke-width="1" fill="none" fill-rule="evenodd">
        <g id="color-logo-copy-2">
            <polygon id="Fill-1" fill="#000000" points="4.59692229 4.36376113 -0.000309838729 29.4547195 5.70459574 29.4547195 10.651171 3.20361281"></polygon>
            <g id="Group-22" transform="translate(9.295162, 0.315897)">
                <path d="M19.8725913,16.670844 C19.8725913,23.8698944 15.0352341,29.1385083 8.29856558,29.1385083 C3.38297415,29.1385083 0.0955852477,25.8797177 0.0955852477,21.0119681 C0.0955852477,14.1768395 4.77182625,8.58753416 11.6672872,8.58753416 C16.8594096,8.58753416 19.8725913,12.2063166 19.8725913,16.670844 M6.0026606,20.8924948 C6.0026606,23.1868531 7.11110865,24.7140674 9.09252732,24.7140674 C12.2226731,24.7140674 13.9678397,20.0891943 13.9678397,16.7085724 C13.9678397,14.8991812 13.2126078,12.9703167 10.914379,12.9703167 C7.62389175,12.9703167 5.96083237,17.8372804 6.0026606,20.8924948" id="Fill-2" fill="#000000"></path>
                <path d="M37.836576,28.6961428 L40.2943717,15.4228199 C40.7715233,12.9311735 41.0867842,10.7602184 41.3245855,9.03021406 L46.3981946,9.03021406 L46.0000519,12.2882187 L46.0798353,12.2882187 C47.9040109,9.71246931 50.3207529,8.58769137 52.8978366,8.58769137 C56.0690359,8.58769137 57.8521578,10.5590003 57.8521578,13.9349061 C57.8521578,14.8215235 57.6933655,16.3102233 57.5330239,17.2746556 L55.3943621,28.6961428 L49.6871327,28.6961428 L51.7072812,17.7973511 C51.8281183,17.1135239 51.9048034,16.3102233 51.9048034,15.5855237 C51.9048034,14.2162971 51.4299756,13.2518649 50.0062666,13.2518649 C48.1402629,13.2518649 45.9620966,15.6263961 45.1704587,19.9683062 L43.5438054,28.6961428 L37.836576,28.6961428 Z" id="Fill-4" fill="#000000"></path>
                <path d="M107.705829,27.5696357 C105.445555,28.7360721 102.63222,29.1385083 100.494332,29.1385083 C94.9443463,29.1385083 92.0915062,25.9229482 92.0915062,20.813894 C92.0915062,14.8213663 96.3727028,8.58753416 103.386677,8.58753416 C107.308461,8.58753416 110.123346,10.8001477 110.123346,14.4590165 C110.123346,19.4839678 105.326267,21.2965031 97.5624835,21.0952849 C97.5624835,21.6588529 97.7600057,22.5423263 98.1527263,23.1051083 C98.9048598,24.111199 100.216252,24.6354665 101.880086,24.6354665 C103.978469,24.6354665 105.762365,24.1512854 107.308461,23.3880713 L107.705829,27.5696357 Z M104.772431,14.4590165 C104.772431,13.4945843 103.978469,12.809971 102.67095,12.809971 C100.014082,12.809971 98.51059,15.0225845 98.1155456,16.8728481 C102.553211,16.9105765 104.772431,16.2699797 104.772431,14.5014609 L104.772431,14.4590165 Z" id="Fill-6" fill="#000000"></path>
                <path d="M107.533868,36.1563838 L111.197711,16.6311506 C111.636133,14.2982778 112.107863,10.8791415 112.349537,8.86931816 L117.458003,8.86931816 L117.102463,11.8852322 L117.180697,11.8852322 C118.769395,9.75436355 121.067624,8.58792717 123.404583,8.58792717 C127.605996,8.58792717 129.629243,12.0062775 129.629243,16.0282822 C129.629243,22.8649827 125.149749,29.1381153 118.413081,29.1381153 C116.824383,29.1381153 115.478133,28.7356791 114.805009,28.3340288 L114.726,28.3340288 L113.402214,34.8319598 L107.533868,36.1563838 Z M115.595872,23.7893285 C116.232591,24.392983 117.102463,24.7561188 118.213235,24.7561188 C121.265921,24.7561188 123.644708,20.3293198 123.644708,16.4700188 C123.644708,14.9019322 123.009538,13.2521007 121.148182,13.2521007 C119.006422,13.2521007 117.024229,15.7068047 116.312374,19.5653197 L115.595872,23.7893285 Z" id="Fill-8" fill="#000000"></path>
                <path d="M150.040024,16.670844 C150.040024,23.8698944 145.207314,29.1385083 138.467547,29.1385083 C133.55428,29.1385083 130.263792,25.8797177 130.263792,21.0119681 C130.263792,14.1768395 134.938484,8.58753416 141.836269,8.58753416 C147.028391,8.58753416 150.040024,12.2063166 150.040024,16.670844 M136.167769,20.8924948 C136.167769,23.1868531 137.278541,24.7140674 139.25996,24.7140674 C142.39088,24.7140674 144.133723,20.0907663 144.133723,16.7085724 C144.133723,14.9023252 143.382364,12.9703167 141.086459,12.9703167 C137.791324,12.9703167 136.128265,17.8372804 136.167769,20.8924948" id="Fill-10" fill="#000000"></path>
                <path d="M160.900878,3.6826849 L159.910169,9.02989966 L164.030249,9.02989966 L163.199107,13.4126822 L159.079027,13.4126822 L157.769183,20.0906091 C157.61194,20.8546092 157.452373,21.9000003 157.452373,22.5830415 C157.452373,23.5474738 157.848967,24.232087 159.079027,24.232087 C159.592584,24.232087 160.14797,24.232087 160.663852,24.1503422 L159.987629,28.6958284 C159.276549,28.9780054 157.848967,29.1383511 156.622005,29.1383511 C153.213779,29.1383511 151.587126,27.3289599 151.587126,24.8750419 C151.587126,23.7895643 151.707963,22.7441733 151.985269,21.213815 L153.491085,13.4126822 L151.033289,13.4126822 L151.825702,9.02989966 L154.323002,9.02989966 L155.034857,5.33094439 L160.900878,3.6826849 Z" id="Fill-12" fill="#000000"></path>
                <path d="M36.7294447,23.9106882 C36.3328512,25.8026103 36.0346314,27.6104295 36.0036475,28.695907 L30.575273,28.695907 L30.6318186,26.7261701 L30.5117561,26.7261701 C28.9129882,28.2934708 26.7549615,29.1392157 24.4590565,29.1392157 C20.5318506,29.1392157 18.8021759,26.241989 19.459034,23.1050297 C20.5295268,17.9983335 25.5613078,15.5459874 32.4087437,15.5837158 L32.4691622,15.3038969 C32.6875985,14.2569338 32.4443751,12.769806 29.4714725,12.769806 C27.4892793,12.769806 25.2475961,13.4528472 23.8091698,14.2569338 L23.5248927,10.3158879 C25.0314836,9.5518878 27.8889712,8.58745556 31.4188089,8.58745556 C37.8773972,8.58745556 39.1291457,12.4491146 38.1624489,17.0716296 L36.7294447,23.9106882 Z M31.8084311,19.1529797 C28.3537293,19.1105353 25.4915941,19.9444901 24.9478271,22.5359596 C24.5915126,24.2502438 25.5419429,25.0865567 27.015226,25.0865567 C28.6596951,25.0865567 30.2329012,23.9877171 30.9509525,22.6247786 C31.111294,22.2734329 31.2367787,21.8764986 31.3181114,21.4827085 L31.8084311,19.1529797 Z" id="Fill-14" fill="#000000"></path>
                <path d="M56.9419291,27.5268768 L64.0806134,8.6194461 C64.0806134,8.6194461 67.5941846,7.6770221 71.3076017,7.11974218 C67.6507301,14.8658544 65.4431292,22.0578308 65.4431292,23.1676745 C65.4431292,24.2775183 65.7591647,26.321926 70.4663896,26.321926 C76.0535565,26.321926 83.1434412,22.8485552 83.1434412,17.5406408 C83.1434412,24.6327941 75.6771024,29.1193297 67.4524334,29.1193297 C61.3199503,29.1193297 56.9419291,27.5268768 56.9419291,27.5268768" id="Fill-16" fill="#000000"></path>
                <path d="M83.1436735,17.5405622 C83.1436735,24.6335015 75.6773348,29.1200371 67.4526657,29.1200371 C61.3194081,29.1200371 57.010326,27.5267982 57.010326,27.5267982 C57.010326,27.5267982 60.7012798,31.0496876 70.1165042,31.0496876 C79.5301794,31.0496876 90.5596635,25.1153246 90.5596635,16.5266114 C90.5596635,4.70190192 73.7919661,6.88307507 73.7919661,6.88307507 L71.2257268,12.3694133 C71.2257268,12.3694133 73.634723,12.0888083 75.6300844,12.0888083 C78.4356741,12.0888083 83.1436735,13.3440637 83.1436735,17.5405622" id="Fill-18" fill="#000000"></path>
                <path d="M167.988207,0.470111591 C168.930891,0.470111591 169.66211,1.21210347 169.66211,2.13880731 C169.66211,3.08437534 168.930891,3.81693512 167.977362,3.81693512 C167.035453,3.81693512 166.283319,3.08437534 166.283319,2.13880731 C166.283319,1.21210347 167.035453,0.470111591 167.977362,0.470111591 L167.988207,0.470111591 Z M167.968067,0.805737154 C167.246918,0.805737154 166.703925,1.40624753 166.703925,2.13880731 C166.703925,2.88158519 167.246918,3.47187746 167.988207,3.47187746 C168.710906,3.48209557 169.242279,2.88158519 169.242279,2.13880731 C169.242279,1.40624753 168.710906,0.805737154 167.977362,0.805737154 L167.968067,0.805737154 Z M167.717872,3.00341648 L167.336771,3.00341648 L167.336771,1.34493888 C167.486268,1.31428455 167.696958,1.28363023 167.968067,1.28363023 C168.278681,1.28363023 168.419657,1.33550678 168.538945,1.41646564 C168.630348,1.48720639 168.700061,1.6200418 168.700061,1.77174141 C168.700061,1.96588547 168.559085,2.10815298 168.360013,2.16946163 L168.360013,2.18989785 C168.51958,2.24020238 168.610983,2.37225178 168.659008,2.59705017 C168.710906,2.85093087 168.739566,2.95311195 168.780619,3.00341648 L168.369308,3.00341648 C168.319734,2.94210783 168.28875,2.79984032 168.239176,2.60648227 C168.208967,2.42334233 168.109044,2.34238347 167.899128,2.34238347 L167.717872,2.34238347 L167.717872,3.00341648 Z M167.727168,2.06728055 L167.907649,2.06728055 C168.119114,2.06728055 168.28875,1.9965398 168.28875,1.82283195 C168.28875,1.67034633 168.178758,1.56895126 167.937858,1.56895126 C167.837935,1.56895126 167.767447,1.57916936 167.727168,1.58938747 L167.727168,2.06728055 Z" id="Fill-20" fill="#000000"></path>
            </g>
        </g>
    </g>
</svg>